<?xml version="1.0" encoding="utf-8"?>
<svg xmlns="http://www.w3.org/2000/svg"
	xmlns:xlink="http://www.w3.org/1999/xlink"
	width="36px" height="33px" viewBox="0 0 36 33">
<path fillRule="evenodd" d="M 27.2 32.84C 26.7 33.15 26.03 33.01 25.71 32.51 25.39 32.01 25.54 31.34 26.04 31.02 27.85 29.88 29.37 28.28 30.54 26.45 30.54 26.45 29.54 25.87 29.54 25.87 29.03 25.57 28.85 24.91 29.15 24.4 29.45 23.89 30.11 23.72 30.63 24.02 30.63 24.02 31.58 24.57 31.58 24.57 32.39 22.83 32.91 20.94 33.05 19.01 33.05 19.01 31.99 19.01 31.99 19.01 31.39 19.01 30.91 18.53 30.91 17.93 30.91 17.34 31.39 16.86 31.99 16.86 31.99 16.86 33.07 16.86 33.07 16.86 32.92 14.89 32.38 13.03 31.55 11.34 31.55 11.34 30.64 11.87 30.64 11.87 30.47 11.96 30.28 12.01 30.1 12.01 29.73 12.01 29.36 11.82 29.16 11.48 28.86 10.97 29.04 10.31 29.55 10.01 29.55 10.01 30.45 9.49 30.45 9.49 29.35 7.89 27.97 6.5 26.34 5.42 26.34 5.42 25.82 6.34 25.82 6.34 25.62 6.69 25.26 6.89 24.88 6.89 24.7 6.89 24.52 6.84 24.35 6.75 23.83 6.46 23.65 5.8 23.94 5.29 23.94 5.29 24.47 4.36 24.47 4.36 22.81 3.58 21 3.08 19.08 2.94 19.08 2.94 19.08 4.01 19.08 4.01 19.08 4.61 18.6 5.09 18 5.09 17.4 5.09 16.92 4.61 16.92 4.01 16.92 4.01 16.92 2.94 16.92 2.94 14.98 3.08 13.15 3.59 11.48 4.39 11.48 4.39 12.01 5.31 12.01 5.31 12.3 5.82 12.12 6.48 11.6 6.77 11.43 6.87 11.25 6.91 11.07 6.91 10.69 6.91 10.33 6.72 10.13 6.37 10.13 6.37 9.6 5.46 9.6 5.46 8.01 6.52 6.65 7.89 5.56 9.47 5.56 9.47 6.46 9.99 6.46 9.99 6.97 10.29 7.15 10.95 6.85 11.46 6.65 11.8 6.28 11.99 5.91 11.99 5.73 11.99 5.54 11.94 5.37 11.85 5.37 11.85 4.46 11.32 4.46 11.32 3.62 13.01 3.08 14.88 2.93 16.86 2.93 16.86 4.01 16.86 4.01 16.86 4.6 16.86 5.09 17.34 5.09 17.93 5.09 18.53 4.6 19.01 4.01 19.01 4.01 19.01 2.95 19.01 2.95 19.01 3.09 20.93 3.6 22.82 4.4 24.55 4.4 24.55 5.36 24 5.36 24 5.88 23.7 6.54 23.87 6.84 24.38 7.14 24.9 6.96 25.55 6.45 25.85 6.45 25.85 5.44 26.43 5.44 26.43 6.62 28.28 8.15 29.88 9.98 31.02 10.49 31.33 10.64 32 10.33 32.5 10.12 32.83 9.77 33 9.41 33 9.21 33 9.02 32.95 8.84 32.84 3.83 29.73 0.72 24.02 0.72 17.93 0.72 14.81 1.57 11.89 3.04 9.37 3.06 9.33 3.06 9.3 3.07 9.27 3.09 9.25 3.1 9.24 3.12 9.22 4.63 6.68 6.79 4.56 9.36 3.07 9.39 3.05 9.41 3.02 9.44 3 9.46 2.99 9.49 2.99 9.52 2.97 12.03 1.56 14.92 0.74 18 0.74 21.06 0.74 23.94 1.55 26.43 2.94 26.45 2.95 26.48 2.95 26.5 2.96 26.53 2.98 26.55 3.01 26.58 3.03 29.18 4.52 31.37 6.67 32.89 9.24 32.91 9.26 32.93 9.27 32.94 9.29 32.96 9.33 32.96 9.37 32.98 9.41 34.43 11.92 35.28 14.83 35.28 17.93 35.28 23.88 32.11 29.73 27.2 32.84ZM 18 15.78C 18.4 15.78 18.77 15.9 19.09 16.09 19.09 16.09 25.03 12.75 25.03 12.75 25.55 12.46 26.21 12.64 26.5 13.16 26.79 13.67 26.61 14.33 26.09 14.62 26.09 14.62 20.16 17.95 20.16 17.95 20.15 19.13 19.18 20.08 18 20.08 16.81 20.08 15.84 19.12 15.84 17.93 15.84 16.75 16.81 15.78 18 15.78Z" fill="rgb(255,255,255)"/></svg>