<?xml version="1.0" encoding="utf-8"?>
<svg xmlns="http://www.w3.org/2000/svg"
	xmlns:xlink="http://www.w3.org/1999/xlink"
	width="26px" height="34px" viewBox="0 0 26 34">
<path fillRule="evenodd" d="M 22.23 33.42C 22.23 33.42 3.77 33.42 3.77 33.42 2.07 33.42 0.69 32.04 0.69 30.34 0.69 30.34 0.69 3.66 0.69 3.66 0.69 1.96 2.07 0.58 3.77 0.58 3.77 0.58 22.23 0.58 22.23 0.58 23.93 0.58 25.31 1.96 25.31 3.66 25.31 3.66 25.31 30.34 25.31 30.34 25.31 32.04 23.93 33.42 22.23 33.42ZM 23.26 3.66C 23.26 3.1 22.8 2.64 22.23 2.64 22.23 2.64 3.77 2.64 3.77 2.64 3.2 2.64 2.74 3.1 2.74 3.66 2.74 3.66 2.74 30.34 2.74 30.34 2.74 30.9 3.2 31.36 3.77 31.36 3.77 31.36 22.23 31.36 22.23 31.36 22.8 31.36 23.26 30.9 23.26 30.34 23.26 30.34 23.26 3.66 23.26 3.66ZM 15.05 5.71C 15.05 5.71 10.95 5.71 10.95 5.71 10.38 5.71 9.92 5.25 9.92 4.69 9.92 4.12 10.38 3.66 10.95 3.66 10.95 3.66 15.05 3.66 15.05 3.66 15.62 3.66 16.08 4.12 16.08 4.69 16.08 5.25 15.62 5.71 15.05 5.71ZM 13 26.23C 14.13 26.23 15.05 27.15 15.05 28.29 15.05 29.42 14.13 30.34 13 30.34 11.87 30.34 10.95 29.42 10.95 28.29 10.95 27.15 11.87 26.23 13 26.23Z" fill="rgb(255,255,255)"/></svg>