<?xml version="1.0" encoding="utf-8"?>
<svg xmlns="http://www.w3.org/2000/svg"
	xmlns:xlink="http://www.w3.org/1999/xlink"
	width="36px" height="34px" viewBox="0 0 36 34">
<path fillRule="evenodd" d="M 28.45 12.13C 27.33 16.45 23.62 19.73 19.08 20.18 19.08 20.18 19.08 26.72 19.08 26.72 19.08 26.72 22.32 26.72 22.32 26.72 22.92 26.72 23.4 27.2 23.4 27.8 23.4 28.4 22.92 28.88 22.32 28.88 22.32 28.88 13.68 28.88 13.68 28.88 13.08 28.88 12.6 28.4 12.6 27.8 12.6 27.2 13.08 26.72 13.68 26.72 13.68 26.72 16.92 26.72 16.92 26.72 16.92 26.72 16.92 20.18 16.92 20.18 12.38 19.73 8.67 16.45 7.55 12.13 3.6 11.66 0.72 7.39 0.72 3.54 0.72 2.94 1.2 1.88 1.8 1.88 1.8 1.88 7.2 1.88 7.2 1.88 7.2 1.28 7.68 0.8 8.28 0.8 8.28 0.8 27.72 0.8 27.72 0.8 28.32 0.8 28.8 1.28 28.8 1.88 28.8 1.88 34.2 1.88 34.2 1.88 34.8 1.88 35.28 2.94 35.28 3.54 35.28 7.39 32.4 11.66 28.45 12.13ZM 7.2 9.44C 7.2 9.44 7.2 4.04 7.2 4.04 7.2 4.04 2.88 4.04 2.88 4.04 3.3 6.33 5.06 9.12 7.22 9.84 7.22 9.71 7.2 9.57 7.2 9.44ZM 26.64 2.96C 26.64 2.96 9.36 2.96 9.36 2.96 9.36 2.96 9.36 9.44 9.36 9.44 9.36 14.2 13.24 18.08 18 18.08 22.76 18.08 26.64 14.2 26.64 9.44 26.64 9.44 26.64 2.96 26.64 2.96ZM 28.8 4.04C 28.8 4.04 28.8 9.44 28.8 9.44 28.8 9.57 28.78 9.71 28.78 9.84 30.94 9.12 32.7 6.33 33.12 4.04 33.12 4.04 28.8 4.04 28.8 4.04ZM 10.44 31.04C 10.44 31.04 25.56 31.04 25.56 31.04 26.16 31.04 26.64 31.52 26.64 32.12 26.64 32.72 26.16 33.2 25.56 33.2 25.56 33.2 10.44 33.2 10.44 33.2 9.84 33.2 9.36 32.72 9.36 32.12 9.36 31.52 9.84 31.04 10.44 31.04Z" fill="rgb(255,255,255)"/></svg>